<svg width="16" height="16" viewBox="0 0 16 16" fill="none" xmlns="http://www.w3.org/2000/svg">
<g opacity="0.4">
<path d="M9.33294 5.99967H8.63294C8.63294 6.38627 8.94634 6.69967 9.33294 6.69967V5.99967ZM9.33294 3.33301H10.0329H9.33294ZM7.33294 1.33301V0.633008C7.05631 0.633008 6.80563 0.795921 6.69327 1.04871L7.33294 1.33301ZM4.66628 7.33301L4.02661 7.04871C3.98683 7.13821 3.96628 7.23506 3.96628 7.33301H4.66628ZM4.66628 14.6663H3.96628C3.96628 15.0529 4.27968 15.3663 4.66628 15.3663V14.6663ZM12.1863 14.6663L12.1942 13.9663H12.1863V14.6663ZM13.5196 13.533L12.8277 13.4269L12.8275 13.4281L13.5196 13.533ZM14.4396 7.53301L15.1315 7.6391L15.1317 7.63805L14.4396 7.53301ZM13.1063 5.99967V6.69972L13.1142 6.69963L13.1063 5.99967ZM4.66634 14.6663V15.3663C5.05294 15.3663 5.36634 15.0529 5.36634 14.6663H4.66634ZM4.66634 7.33301H5.36634C5.36634 6.94641 5.05294 6.63301 4.66634 6.63301V7.33301ZM10.0329 5.99967V3.33301H8.63294V5.99967H10.0329ZM10.0329 3.33301C10.0329 1.84184 8.82411 0.633008 7.33294 0.633008V2.03301C8.05091 2.03301 8.63294 2.61504 8.63294 3.33301H10.0329ZM6.69327 1.04871L4.02661 7.04871L5.30594 7.6173L7.97261 1.6173L6.69327 1.04871ZM3.96628 7.33301V14.6663H5.36628V7.33301H3.96628ZM4.66628 15.3663H12.1863V13.9663H4.66628V15.3663ZM12.1784 15.3663C13.1923 15.3778 14.0597 14.6405 14.2117 13.638L12.8275 13.4281C12.7802 13.7403 12.51 13.97 12.1942 13.9664L12.1784 15.3663ZM14.2115 13.6391L15.1315 7.6391L13.7477 7.42691L12.8277 13.4269L14.2115 13.6391ZM15.1317 7.63805C15.2212 7.04824 15.0472 6.44887 14.6557 5.99869L13.5993 6.91734C13.7212 7.05756 13.7754 7.24425 13.7475 7.42796L15.1317 7.63805ZM14.6557 5.99869C14.2643 5.54852 13.6949 5.29296 13.0984 5.29972L13.1142 6.69963C13.3 6.69753 13.4774 6.77712 13.5993 6.91734L14.6557 5.99869ZM13.1063 5.29967H9.33294V6.69967H13.1063V5.29967ZM4.66634 13.9663H2.66634V15.3663H4.66634V13.9663ZM2.66634 13.9663C2.31656 13.9663 2.03301 13.6828 2.03301 13.333H0.633008C0.633008 14.456 1.54336 15.3663 2.66634 15.3663V13.9663ZM2.03301 13.333V8.66634H0.633008V13.333H2.03301ZM2.03301 8.66634C2.03301 8.31656 2.31656 8.03301 2.66634 8.03301V6.63301C1.54336 6.63301 0.633008 7.54336 0.633008 8.66634H2.03301ZM2.66634 8.03301H4.66634V6.63301H2.66634V8.03301ZM3.96634 7.33301V14.6663H5.36634V7.33301H3.96634Z" fill="black"/>
</g>
</svg>
