<svg width="16" height="16" viewBox="0 0 16 16" fill="none" xmlns="http://www.w3.org/2000/svg">
<g opacity="0.4">
<path d="M6.6667 10H7.3667C7.3667 9.6134 7.0533 9.3 6.6667 9.3V10ZM8.6667 14.6667V15.3667C8.94333 15.3667 9.19401 15.2038 9.30636 14.951L8.6667 14.6667ZM11.3334 8.66666L11.973 8.95096C12.0128 8.86146 12.0334 8.76461 12.0334 8.66666H11.3334ZM11.3334 1.33333H12.0334C12.0334 0.946732 11.72 0.633331 11.3334 0.633331V1.33333ZM3.81336 1.33333L3.80545 2.03333H3.81336V1.33333ZM2.48003 2.46666L3.17194 2.57276L3.17212 2.57162L2.48003 2.46666ZM1.56003 8.46666L0.868116 8.36057L0.867956 8.36162L1.56003 8.46666ZM2.89336 10V9.29995L2.88544 9.30004L2.89336 10ZM11.3334 1.33325V0.633252C10.9468 0.633252 10.6334 0.946653 10.6334 1.33325H11.3334ZM13.1134 1.33325V2.03336L13.1258 2.03314L13.1134 1.33325ZM14.6667 2.66659H15.3667C15.3667 2.6352 15.3646 2.60386 15.3604 2.57276L14.6667 2.66659ZM14.6667 7.33325L15.3604 7.42708C15.3646 7.39598 15.3667 7.36464 15.3667 7.33325H14.6667ZM13.1134 8.66659L13.1258 7.96659H13.1134V8.66659ZM11.3334 8.66659H10.6334C10.6334 9.05319 10.9468 9.36659 11.3334 9.36659V8.66659ZM5.9667 10V12.6667H7.3667V10H5.9667ZM5.9667 12.6667C5.9667 14.1578 7.17553 15.3667 8.6667 15.3667V13.9667C7.94873 13.9667 7.3667 13.3846 7.3667 12.6667H5.9667ZM9.30636 14.951L11.973 8.95096L10.6937 8.38237L8.02703 14.3824L9.30636 14.951ZM12.0334 8.66666V1.33333H10.6334V8.66666H12.0334ZM11.3334 0.633331H3.81336V2.03333H11.3334V0.633331ZM3.82128 0.633376C2.80737 0.621914 1.93997 1.3592 1.78794 2.36171L3.17212 2.57162C3.21947 2.25936 3.48964 2.02972 3.80545 2.03329L3.82128 0.633376ZM1.78812 2.36057L0.868116 8.36057L2.25194 8.57276L3.17194 2.57276L1.78812 2.36057ZM0.867956 8.36162C0.778433 8.95143 0.952444 9.55081 1.3439 10.001L2.40035 9.08233C2.27842 8.94211 2.22422 8.75542 2.2521 8.57171L0.867956 8.36162ZM1.3439 10.001C1.73536 10.4512 2.30476 10.7067 2.90129 10.7L2.88544 9.30004C2.69963 9.30215 2.52228 9.22255 2.40035 9.08233L1.3439 10.001ZM2.89336 10.7H6.6667V9.3H2.89336V10.7ZM11.3334 2.03325H13.1134V0.633252H11.3334V2.03325ZM13.1258 2.03314C13.5518 2.02561 13.9159 2.3382 13.973 2.76042L15.3604 2.57276C15.2081 1.44684 14.237 0.613271 13.101 0.633362L13.1258 2.03314ZM13.9667 2.66659V7.33325H15.3667V2.66659H13.9667ZM13.973 7.23942C13.9159 7.66164 13.5518 7.97423 13.1258 7.9667L13.101 9.36648C14.237 9.38657 15.2081 8.553 15.3604 7.42708L13.973 7.23942ZM13.1134 7.96659H11.3334V9.36659H13.1134V7.96659ZM12.0334 8.66659V1.33325H10.6334V8.66659H12.0334Z" fill="black"/>
</g>
</svg>
